# xmcd
#
# Track frame offsets:
#	182
#	16417
#	31330
#	46515
#	69342
#	88030
#	109682
#	141837
#	162672
#	177377
#	197417
#	213165
#	239260
#	255880
#	273660
#	294872
#
# Disc length: 4175 seconds
#
# Revision: 2
# Processed by: cddbd v1.5.1PL0 Copyright (c) Steve Scherf et al.
# Submitted via: EasyCDDAExtractor 6.0.0.1
#
DISCID=d5104d10
DTITLE=Various Artist - Say It Loud! A Celebration Of Black Music In America 
DTITLE=Disc 5
DYEAR=1900
DGENRE=R&B
TTITLE0=Sister Sledge - We Are Family
TTITLE1=Gloria Gaynor - I Will Survive
TTITLE2=Isley Brothers - Fight The Power - Part 1
TTITLE3=Sugarhill Gang - Rapper's Delight
TTITLE4=Kurtis Blow - The Breaks (Part 1)
TTITLE5=Grandmaster Flash and the Furious Five - The Message
TTITLE6=Luther Vandross - A House Is Not A Home
TTITLE7=Patti Labelle - If You Only Knew
TTITLE8=Run D.M.C. - Proud To Be Black
TTITLE9=Ice-T - Colors
TTITLE10=Neville Brothers - Sister rosa
TTITLE11=NWA - Express Yourself
TTITLE12=De La Soul - Me Myself And I
TTITLE13=Queen Latifah - Ladies First
TTITLE14=Living Colour - Elvis Is Dead
TTITLE15=Coolio - Fantastic Voyage
EXTD=
EXTT0=
EXTT1=
EXTT2=
EXTT3=
EXTT4=
EXTT5=
EXTT6=
EXTT7=
EXTT8=
EXTT9=
EXTT10=
EXTT11=
EXTT12=
EXTT13=
EXTT14=
EXTT15=
PLAYORDER=
